<svg width="601" height="499" viewBox="0 0 601 499" fill="none" xmlns="http://www.w3.org/2000/svg">
<path d="M334.289 283.527C334.289 301.861 330.829 319.117 323.91 335.294C316.991 351.317 307.534 365.337 295.541 377.354C283.702 389.218 269.709 398.616 253.565 405.549C237.574 412.482 220.429 415.948 202.132 415.948C191.061 415.948 126.763 415.77 113.75 415.77V349.444C119.213 349.444 197.172 349.622 202.132 349.622C196.289 349.622 207.092 349.622 202.132 349.622C210.783 348.678 219.737 347.927 227.733 344.538C235.882 340.994 242.955 336.218 248.952 330.21C254.948 324.201 259.638 317.191 263.021 309.179C266.557 301.168 268.326 292.617 268.326 283.527V201.436L232.392 152.309L298.417 85.331V152.308L334.289 201.436V283.527Z" fill="#C4C4C4"/>
<path d="M113.75 415.77L50.5 349.622L51.7542 151.454L113.75 83.15V415.77Z" fill="white"/>
<path d="M418.343 151.657L406.5 278.352C415.572 278.352 437.808 278.425 443.927 276.398C452.252 273.64 458.936 270.905 464.933 264.897C470.929 258.888 475.619 251.878 479.002 243.867C482.538 235.701 484.306 227.073 484.306 217.983C484.306 208.893 482.538 200.342 479.002 192.331C475.619 184.165 470.929 177.078 464.933 171.07C458.936 165.061 451.94 160.362 443.944 156.972C435.949 153.429 427.415 151.657 418.343 151.657ZM406.5 278.352L418.343 151.657H352.15L289.617 152.415L232.392 152.309L298.417 85.331H418.343C430.49 85.331 442.176 86.9487 453.4 90.1841C464.625 93.2655 475.081 97.7334 484.768 103.588C494.608 109.288 503.526 116.222 511.522 124.387C519.671 132.399 526.59 141.335 532.279 151.195C538.122 161.055 542.581 171.609 545.656 182.856C548.885 194.103 550.5 205.812 550.5 217.983C550.5 229.384 548.421 240.267 545.5 251.052C541.382 261.842 537.5 272.552 531 282.052C524.5 291.552 520.685 295.668 512.997 303.834C507.614 309.552 499.5 316.327 486 324.052C479.503 327.77 475 331.552 463 335.552L445.211 414.465L371.997 338.039L406.5 278.352Z" fill="white"/>
<path d="M113.75 83.15L161.359 83.0518L161.352 151.454L113.75 151.454V83.15Z" fill="url(#paint0_linear_1251_1140)"/>
<path d="M371.997 338.039C371.997 338.039 435.922 337.257 445.211 337.257C454.5 337.257 463 335.552 463 335.552L550.5 415.948L445.211 414.465L371.997 338.039Z" fill="url(#paint1_linear_1251_1140)"/>
<path d="M268.538 201.395L334.289 201.436L298.417 152.308L232.392 152.309L268.538 201.395Z" fill="url(#paint2_linear_1251_1140)"/>
<path d="M113.75 349.444L202.132 349.622V415.948L113.75 415.77V349.444Z" fill="url(#paint3_linear_1251_1140)"/>
<path d="M113.75 83.15L161.359 83.0518V151.511H113.819L113.75 83.15Z" fill="url(#paint4_linear_1251_1140)"/>
<path d="M232.392 152.309L298.417 152.308L334.275 201.45H268.321L232.392 152.309Z" fill="url(#paint5_linear_1251_1140)"/>
<path d="M334.275 201.45L334.277 201.765H268.322L268.321 201.45H334.275Z" fill="#CCCCCC"/>
<defs>
<linearGradient id="paint0_linear_1251_1140" x1="300.5" y1="83.0518" x2="300.5" y2="415.948" gradientUnits="userSpaceOnUse">
<stop offset="0.120192" stop-color="#DADADA"/>
<stop offset="0.326923" stop-color="#999999"/>
</linearGradient>
<linearGradient id="paint1_linear_1251_1140" x1="453.592" y1="284.734" x2="491.977" y2="414.956" gradientUnits="userSpaceOnUse">
<stop stop-color="#191919"/>
<stop offset="0.0001" stop-color="#C4C4C4"/>
</linearGradient>
<linearGradient id="paint2_linear_1251_1140" x1="237.399" y1="447.555" x2="209.512" y2="187.136" gradientUnits="userSpaceOnUse">
<stop stop-color="#8A8A8A"/>
<stop offset="1" stop-color="#F9F9F9"/>
</linearGradient>
<linearGradient id="paint3_linear_1251_1140" x1="124.831" y1="111.53" x2="106.844" y2="112.588" gradientUnits="userSpaceOnUse">
<stop stop-color="#C4C4C4"/>
<stop offset="1" stop-color="#AEAEAE"/>
</linearGradient>
<linearGradient id="paint4_linear_1251_1140" x1="124.831" y1="111.53" x2="106.844" y2="112.588" gradientUnits="userSpaceOnUse">
<stop stop-color="#C4C4C4"/>
<stop offset="1" stop-color="#AEAEAE"/>
</linearGradient>
<linearGradient id="paint5_linear_1251_1140" x1="222.991" y1="194.53" x2="220.647" y2="83.0746" gradientUnits="userSpaceOnUse">
<stop stop-color="#C4C4C4"/>
<stop offset="1" stop-color="#202020" stop-opacity="0"/>
</linearGradient>
</defs>
</svg>
