<svg width="1654" height="247" viewBox="0 0 1654 247" fill="none" xmlns="http://www.w3.org/2000/svg">
<path d="M454.601 246.291H453.601V4.37112e-08L454.601 0V246.291Z" fill="white"/>
<path d="M1609.18 105.845L1625.07 55.4454H1637.43L1653.32 105.845H1644.64L1630.22 60.6254H1632.11L1617.86 105.845H1609.18ZM1618.04 94.9254V87.0504H1644.5V94.9254H1618.04Z" fill="white"/>
<path d="M1531.47 105.845V55.4454H1552.29C1552.78 55.4454 1553.41 55.4687 1554.18 55.5154C1554.95 55.5387 1555.67 55.6087 1556.32 55.7254C1559.24 56.1687 1561.64 57.137 1563.53 58.6304C1565.44 60.1237 1566.85 62.0137 1567.76 64.3004C1568.7 66.5637 1569.16 69.0837 1569.16 71.8604C1569.16 75.967 1568.13 79.502 1566.05 82.4654C1563.97 85.4054 1560.79 87.2254 1556.49 87.9254L1552.89 88.2404H1539.9V105.845H1531.47ZM1560.41 105.845L1550.47 85.3354L1559.05 83.4454L1569.97 105.845H1560.41ZM1539.9 80.3654H1551.94C1552.41 80.3654 1552.94 80.342 1553.52 80.2954C1554.1 80.2487 1554.64 80.1554 1555.13 80.0154C1556.53 79.6654 1557.63 79.047 1558.42 78.1604C1559.24 77.2737 1559.81 76.2704 1560.13 75.1504C1560.48 74.0304 1560.66 72.9337 1560.66 71.8604C1560.66 70.787 1560.48 69.6904 1560.13 68.5704C1559.81 67.427 1559.24 66.412 1558.42 65.5254C1557.63 64.6387 1556.53 64.0204 1555.13 63.6704C1554.64 63.5304 1554.1 63.4487 1553.52 63.4254C1552.94 63.3787 1552.41 63.3554 1551.94 63.3554H1539.9V80.3654Z" fill="white"/>
<path d="M1455.52 105.845V55.4454H1488.07V63.3554H1463.96V75.7804H1483.87V83.6904H1463.96V97.9354H1488.07V105.845H1455.52Z" fill="white"/>
<path d="M1387.02 105.845L1371.13 55.4454H1379.81L1393.11 97.6554L1406.58 55.4454H1415.26L1399.37 105.845H1387.02Z" fill="white"/>
<path d="M1321.76 105.845V55.4454H1330.19V105.845H1321.76Z" fill="white"/>
<path d="M1239.85 105.845V55.4454H1260.67C1261.16 55.4454 1261.79 55.4687 1262.56 55.5154C1263.33 55.5387 1264.04 55.6087 1264.7 55.7254C1267.61 56.1687 1270.02 57.137 1271.91 58.6304C1273.82 60.1237 1275.23 62.0137 1276.14 64.3004C1277.08 66.5637 1277.54 69.0837 1277.54 71.8604C1277.54 75.967 1276.5 79.502 1274.43 82.4654C1272.35 85.4054 1269.17 87.2254 1264.87 87.9254L1261.27 88.2404H1248.28V105.845H1239.85ZM1268.79 105.845L1258.85 85.3354L1267.43 83.4454L1278.35 105.845H1268.79ZM1248.28 80.3654H1260.32C1260.79 80.3654 1261.31 80.342 1261.9 80.2954C1262.48 80.2487 1263.02 80.1554 1263.51 80.0154C1264.91 79.6654 1266.01 79.047 1266.8 78.1604C1267.61 77.2737 1268.19 76.2704 1268.51 75.1504C1268.86 74.0304 1269.04 72.9337 1269.04 71.8604C1269.04 70.787 1268.86 69.6904 1268.51 68.5704C1268.19 67.427 1267.61 66.412 1266.8 65.5254C1266.01 64.6387 1264.91 64.0204 1263.51 63.6704C1263.02 63.5304 1262.48 63.4487 1261.9 63.4254C1261.31 63.3787 1260.79 63.3554 1260.32 63.3554H1248.28V80.3654Z" fill="white"/>
<path d="M1119.19 105.845V55.4454H1149.54V63.8804H1127.63V76.4454H1145.34V84.8454H1127.63V105.845H1119.19Z" fill="white"/>
<path d="M1043.25 105.845V55.4454H1075.8V63.3554H1051.68V75.7804H1071.6V83.6904H1051.68V97.9354H1075.8V105.845H1043.25Z" fill="white"/>
<path d="M980.896 106.895C977.209 106.895 973.884 106.254 970.921 104.97C967.981 103.687 965.554 101.855 963.641 99.4754C961.751 97.072 960.549 94.2254 960.036 90.9354L968.786 89.6054C969.533 92.592 971.061 94.902 973.371 96.5354C975.704 98.1687 978.388 98.9854 981.421 98.9854C983.218 98.9854 984.909 98.7054 986.496 98.1454C988.083 97.5854 989.366 96.7687 990.346 95.6954C991.349 94.622 991.851 93.3037 991.851 91.7404C991.851 91.0404 991.734 90.3987 991.501 89.8154C991.268 89.2087 990.918 88.672 990.451 88.2054C990.008 87.7387 989.424 87.3187 988.701 86.9454C988.001 86.5487 987.184 86.2104 986.251 85.9304L973.231 82.0804C972.111 81.7537 970.898 81.322 969.591 80.7854C968.308 80.2254 967.083 79.467 965.916 78.5104C964.773 77.5304 963.828 76.2937 963.081 74.8004C962.358 73.2837 961.996 71.417 961.996 69.2004C961.996 65.957 962.812 63.2387 964.446 61.0454C966.103 58.8287 968.319 57.172 971.096 56.0754C973.896 54.9787 976.999 54.442 980.406 54.4654C983.859 54.4887 986.939 55.0837 989.646 56.2504C992.353 57.3937 994.616 59.062 996.436 61.2554C998.256 63.4487 999.539 66.097 1000.29 69.2004L991.221 70.7754C990.848 69.002 990.124 67.497 989.051 66.2604C988.001 65.0004 986.706 64.0437 985.166 63.3904C983.649 62.737 982.028 62.387 980.301 62.3404C978.621 62.317 977.058 62.5737 975.611 63.1104C974.188 63.6237 973.033 64.3704 972.146 65.3504C971.283 66.3304 970.851 67.4737 970.851 68.7804C970.851 70.017 971.224 71.032 971.971 71.8254C972.718 72.5954 973.639 73.2137 974.736 73.6804C975.856 74.1237 976.988 74.497 978.131 74.8004L987.161 77.3204C988.398 77.647 989.786 78.0904 991.326 78.6504C992.866 79.2104 994.348 79.992 995.771 80.9954C997.194 81.9987 998.361 83.317 999.271 84.9504C1000.2 86.5837 1000.67 88.6604 1000.67 91.1804C1000.67 93.7937 1000.12 96.092 999.026 98.0754C997.953 100.035 996.494 101.669 994.651 102.975C992.808 104.282 990.696 105.262 988.316 105.915C985.959 106.569 983.486 106.895 980.896 106.895Z" fill="white"/>
<path d="M896.124 106.895C891.084 106.895 886.768 105.799 883.174 103.605C879.581 101.389 876.816 98.3087 874.879 94.3654C872.966 90.422 872.009 85.8487 872.009 80.6454C872.009 75.442 872.966 70.8687 874.879 66.9254C876.816 62.982 879.581 59.9137 883.174 57.7204C886.768 55.5037 891.084 54.3954 896.124 54.3954C901.164 54.3954 905.481 55.5037 909.074 57.7204C912.691 59.9137 915.456 62.982 917.369 66.9254C919.306 70.8687 920.274 75.442 920.274 80.6454C920.274 85.8487 919.306 90.422 917.369 94.3654C915.456 98.3087 912.691 101.389 909.074 103.605C905.481 105.799 901.164 106.895 896.124 106.895ZM896.124 98.9504C899.508 98.9737 902.319 98.227 904.559 96.7104C906.823 95.1937 908.514 93.0587 909.634 90.3054C910.778 87.552 911.349 84.332 911.349 80.6454C911.349 76.9587 910.778 73.762 909.634 71.0554C908.514 68.3254 906.823 66.202 904.559 64.6854C902.319 63.1687 899.508 62.387 896.124 62.3404C892.741 62.317 889.929 63.0637 887.689 64.5804C885.449 66.097 883.758 68.232 882.614 70.9854C881.494 73.7387 880.934 76.9587 880.934 80.6454C880.934 84.332 881.494 87.5404 882.614 90.2704C883.734 92.977 885.414 95.0887 887.654 96.6054C889.918 98.122 892.741 98.9037 896.124 98.9504Z" fill="white"/>
<path d="M814.821 106.895C810.971 106.895 807.763 105.892 805.196 103.885C802.653 101.879 800.868 99.172 799.841 95.7654L808.171 93.7704C808.427 95.1937 809.174 96.4187 810.411 97.4454C811.648 98.472 813.013 98.9854 814.506 98.9854C815.486 98.9854 816.524 98.7287 817.621 98.2154C818.718 97.6787 819.534 96.827 820.071 95.6604C820.398 94.9137 820.584 94.027 820.631 93.0004C820.701 91.9504 820.736 90.737 820.736 89.3604V55.4454H829.276V89.3604C829.276 90.9237 829.264 92.3004 829.241 93.4904C829.241 94.657 829.124 95.7654 828.891 96.8154C828.681 97.842 828.249 98.9037 827.596 100C826.219 102.38 824.423 104.13 822.206 105.25C819.989 106.347 817.528 106.895 814.821 106.895Z" fill="white"/>
<path d="M670.483 105.845V55.4454H679.023L702.403 90.9704V55.4454H710.943V105.845H702.403L679.023 70.3204V105.845H670.483Z" fill="white"/>
<path d="M585.02 105.845L600.91 55.4454H613.265L629.155 105.845H620.475L606.055 60.6254H607.945L593.7 105.845H585.02ZM593.875 94.9254V87.0504H620.335V94.9254H593.875Z" fill="white"/>
<path d="M534.601 105.845V55.4454H543.036V105.845H534.601Z" fill="white"/>
<path d="M1626.8 191.295V162.495H1637.66C1637.94 162.495 1638.24 162.509 1638.56 162.535C1638.9 162.549 1639.24 162.589 1639.6 162.655C1641.04 162.882 1642.28 163.402 1643.3 164.215C1644.34 165.015 1645.14 166.029 1645.68 167.255C1646.23 168.469 1646.5 169.809 1646.5 171.275C1646.5 173.395 1645.94 175.242 1644.8 176.815C1643.67 178.389 1642.09 179.389 1640.06 179.815L1639.4 180.075H1629.1V191.295H1626.8ZM1644.54 191.295L1638.86 179.575L1641 178.495L1647.24 191.295H1644.54ZM1629.1 177.815H1637.62C1637.86 177.815 1638.14 177.802 1638.44 177.775C1638.76 177.749 1639.08 177.709 1639.4 177.655C1640.44 177.442 1641.31 177.022 1642 176.395C1642.7 175.755 1643.22 174.989 1643.56 174.095C1643.91 173.202 1644.08 172.262 1644.08 171.275C1644.08 170.289 1643.91 169.355 1643.56 168.475C1643.22 167.582 1642.7 166.822 1642 166.195C1641.31 165.555 1640.44 165.129 1639.4 164.915C1639.08 164.849 1638.76 164.802 1638.44 164.775C1638.14 164.749 1637.86 164.735 1637.62 164.735H1629.1V177.815Z" fill="white"/>
<path d="M1554.59 191.295V162.495H1572.39V164.735H1556.89V175.675H1569.99V177.915H1556.89V189.055H1572.39V191.295H1554.59Z" fill="white"/>
<path d="M1478.07 191.295V162.495H1480.39L1497.07 187.195V162.495H1499.39V191.295H1497.07L1480.39 166.555V191.295H1478.07Z" fill="white"/>
<path d="M1412.06 191.895C1409.97 191.895 1408.11 191.535 1406.48 190.815C1404.87 190.095 1403.51 189.075 1402.4 187.755C1401.29 186.435 1400.45 184.855 1399.88 183.015C1399.31 181.175 1399.02 179.135 1399.02 176.895C1399.02 173.922 1399.52 171.315 1400.52 169.075C1401.53 166.822 1403.01 165.069 1404.94 163.815C1406.87 162.562 1409.25 161.935 1412.06 161.935C1414.97 161.935 1417.35 162.615 1419.22 163.975C1421.1 165.335 1422.42 167.122 1423.18 169.335L1420.9 170.035C1420.23 168.262 1419.15 166.849 1417.64 165.795C1416.15 164.729 1414.31 164.189 1412.12 164.175C1409.76 164.175 1407.79 164.715 1406.22 165.795C1404.66 166.862 1403.49 168.355 1402.7 170.275C1401.91 172.195 1401.51 174.402 1401.48 176.895C1401.45 179.389 1401.83 181.595 1402.62 183.515C1403.42 185.422 1404.61 186.922 1406.2 188.015C1407.79 189.095 1409.76 189.635 1412.12 189.635C1414.37 189.649 1416.21 189.209 1417.64 188.315C1419.08 187.422 1420.15 186.169 1420.84 184.555C1421.55 182.929 1421.93 181.029 1421.98 178.855H1414.82V176.755H1424.38C1424.42 177.089 1424.44 177.415 1424.44 177.735C1424.45 178.055 1424.46 178.302 1424.46 178.475C1424.46 181.022 1424.01 183.309 1423.12 185.335C1422.24 187.362 1420.88 188.962 1419.04 190.135C1417.21 191.309 1414.89 191.895 1412.06 191.895Z" fill="white"/>
<path d="M1342.71 191.295V162.495H1345.01V191.295H1342.71Z" fill="white"/>
<path d="M1278.39 191.895C1276.42 191.895 1274.64 191.569 1273.05 190.915C1271.48 190.262 1270.17 189.335 1269.13 188.135C1268.1 186.935 1267.42 185.509 1267.07 183.855L1269.43 183.455C1269.92 185.375 1270.98 186.889 1272.59 187.995C1274.22 189.102 1276.17 189.655 1278.45 189.655C1280 189.655 1281.36 189.409 1282.55 188.915C1283.74 188.422 1284.66 187.729 1285.33 186.835C1286 185.929 1286.33 184.875 1286.33 183.675C1286.33 182.809 1286.17 182.082 1285.85 181.495C1285.54 180.909 1285.14 180.429 1284.65 180.055C1284.16 179.669 1283.63 179.362 1283.07 179.135C1282.51 178.895 1281.98 178.702 1281.49 178.555L1274.25 176.395C1273.29 176.115 1272.43 175.769 1271.67 175.355C1270.92 174.929 1270.29 174.442 1269.77 173.895C1269.26 173.335 1268.87 172.702 1268.59 171.995C1268.32 171.289 1268.19 170.502 1268.19 169.635C1268.19 168.089 1268.6 166.735 1269.43 165.575C1270.26 164.415 1271.39 163.515 1272.83 162.875C1274.28 162.222 1275.95 161.895 1277.83 161.895C1279.72 161.909 1281.42 162.262 1282.93 162.955C1284.44 163.635 1285.67 164.602 1286.63 165.855C1287.6 167.109 1288.23 168.595 1288.51 170.315L1286.13 170.735C1285.94 169.415 1285.46 168.262 1284.69 167.275C1283.93 166.289 1282.96 165.522 1281.77 164.975C1280.58 164.429 1279.26 164.155 1277.81 164.155C1276.41 164.142 1275.17 164.375 1274.09 164.855C1273.02 165.335 1272.18 165.982 1271.57 166.795C1270.96 167.609 1270.65 168.529 1270.65 169.555C1270.65 170.622 1270.94 171.475 1271.51 172.115C1272.1 172.742 1272.81 173.235 1273.65 173.595C1274.5 173.955 1275.32 174.249 1276.09 174.475L1281.89 176.195C1282.44 176.355 1283.09 176.582 1283.85 176.875C1284.61 177.169 1285.36 177.589 1286.09 178.135C1286.82 178.669 1287.43 179.382 1287.91 180.275C1288.4 181.155 1288.65 182.262 1288.65 183.595C1288.65 184.889 1288.4 186.049 1287.91 187.075C1287.42 188.102 1286.71 188.975 1285.79 189.695C1284.87 190.402 1283.78 190.942 1282.53 191.315C1281.28 191.702 1279.9 191.895 1278.39 191.895Z" fill="white"/>
<path d="M1197.72 191.295V162.495H1215.52V164.735H1200.02V175.675H1213.12V177.915H1200.02V189.055H1215.52V191.295H1197.72Z" fill="white"/>
<path d="M1121.67 191.295V162.495H1130.25C1130.59 162.495 1131.13 162.502 1131.87 162.515C1132.63 162.529 1133.35 162.589 1134.03 162.695C1136.19 162.989 1137.99 163.802 1139.41 165.135C1140.84 166.455 1141.91 168.135 1142.61 170.175C1143.32 172.202 1143.67 174.442 1143.67 176.895C1143.67 179.362 1143.32 181.615 1142.61 183.655C1141.91 185.682 1140.84 187.355 1139.41 188.675C1137.99 189.995 1136.19 190.802 1134.03 191.095C1133.35 191.189 1132.63 191.249 1131.85 191.275C1131.09 191.289 1130.56 191.295 1130.25 191.295H1121.67ZM1124.09 189.035H1130.25C1130.85 189.035 1131.47 189.022 1132.11 188.995C1132.75 188.955 1133.3 188.895 1133.75 188.815C1135.54 188.495 1136.98 187.789 1138.07 186.695C1139.17 185.589 1139.96 184.195 1140.45 182.515C1140.96 180.822 1141.21 178.949 1141.21 176.895C1141.21 174.829 1140.96 172.955 1140.45 171.275C1139.95 169.582 1139.15 168.189 1138.05 167.095C1136.96 165.989 1135.53 165.282 1133.75 164.975C1133.3 164.895 1132.74 164.842 1132.07 164.815C1131.42 164.775 1130.81 164.755 1130.25 164.755H1124.09V189.035Z" fill="white"/>
<path d="M999.848 191.295V164.735H989.528V162.495H1012.47V164.735H1002.15V191.295H999.848Z" fill="white"/>
<path d="M925.546 191.895C922.68 191.895 920.273 191.262 918.326 189.995C916.38 188.715 914.913 186.949 913.926 184.695C912.94 182.442 912.446 179.842 912.446 176.895C912.446 173.949 912.94 171.349 913.926 169.095C914.913 166.842 916.38 165.082 918.326 163.815C920.273 162.535 922.68 161.895 925.546 161.895C928.893 161.895 931.606 162.762 933.686 164.495C935.78 166.229 937.2 168.549 937.946 171.455L935.566 172.035C934.953 169.622 933.806 167.709 932.126 166.295C930.46 164.869 928.266 164.155 925.546 164.155C923.186 164.155 921.22 164.695 919.646 165.775C918.086 166.855 916.906 168.355 916.106 170.275C915.32 172.195 914.92 174.402 914.906 176.895C914.88 179.389 915.26 181.595 916.046 183.515C916.846 185.422 918.04 186.922 919.626 188.015C921.213 189.095 923.186 189.635 925.546 189.635C928.266 189.635 930.46 188.922 932.126 187.495C933.806 186.069 934.953 184.155 935.566 181.755L937.946 182.335C937.2 185.242 935.78 187.562 933.686 189.295C931.606 191.029 928.893 191.895 925.546 191.895Z" fill="white"/>
<path d="M847.715 191.895C845.555 191.895 843.635 191.449 841.955 190.555C840.288 189.649 838.975 188.382 838.015 186.755C837.068 185.115 836.595 183.195 836.595 180.995V162.495H838.915V180.515C838.915 182.155 839.188 183.562 839.735 184.735C840.295 185.895 841.015 186.842 841.895 187.575C842.788 188.309 843.742 188.849 844.755 189.195C845.781 189.542 846.768 189.715 847.715 189.715C848.661 189.715 849.648 189.542 850.675 189.195C851.702 188.849 852.655 188.309 853.535 187.575C854.415 186.842 855.128 185.895 855.675 184.735C856.235 183.562 856.515 182.155 856.515 180.515V162.495H858.835V180.995C858.835 183.182 858.355 185.095 857.395 186.735C856.448 188.362 855.135 189.629 853.455 190.535C851.788 191.442 849.875 191.895 847.715 191.895Z" fill="white"/>
<path d="M760.549 191.295V162.495H769.13C769.463 162.495 770.003 162.502 770.75 162.515C771.51 162.529 772.229 162.589 772.909 162.695C775.069 162.989 776.863 163.802 778.289 165.135C779.716 166.455 780.783 168.135 781.49 170.175C782.196 172.202 782.549 174.442 782.549 176.895C782.549 179.362 782.196 181.615 781.49 183.655C780.783 185.682 779.716 187.355 778.289 188.675C776.863 189.995 775.069 190.802 772.909 191.095C772.229 191.189 771.503 191.249 770.729 191.275C769.969 191.289 769.436 191.295 769.13 191.295H760.549ZM762.97 189.035H769.13C769.729 189.035 770.349 189.022 770.99 188.995C771.63 188.955 772.176 188.895 772.63 188.815C774.416 188.495 775.856 187.789 776.95 186.695C778.043 185.589 778.836 184.195 779.33 182.515C779.836 180.822 780.09 178.949 780.09 176.895C780.09 174.829 779.836 172.955 779.33 171.275C778.823 169.582 778.023 168.189 776.93 167.095C775.836 165.989 774.403 165.282 772.63 164.975C772.176 164.895 771.616 164.842 770.95 164.815C770.296 164.775 769.69 164.755 769.13 164.755H762.97V189.035Z" fill="white"/>
<path d="M693.856 191.895C690.989 191.895 688.582 191.262 686.636 189.995C684.689 188.715 683.222 186.949 682.236 184.695C681.249 182.442 680.756 179.842 680.756 176.895C680.756 173.949 681.249 171.349 682.236 169.095C683.222 166.842 684.689 165.082 686.636 163.815C688.582 162.535 690.989 161.895 693.856 161.895C696.722 161.895 699.122 162.535 701.056 163.815C703.002 165.082 704.469 166.842 705.456 169.095C706.442 171.349 706.936 173.949 706.936 176.895C706.936 179.842 706.442 182.442 705.456 184.695C704.469 186.949 703.002 188.715 701.056 189.995C699.122 191.262 696.722 191.895 693.856 191.895ZM693.856 189.635C696.216 189.649 698.182 189.115 699.756 188.035C701.329 186.942 702.509 185.435 703.296 183.515C704.082 181.595 704.476 179.389 704.476 176.895C704.476 174.402 704.082 172.195 703.296 170.275C702.509 168.355 701.329 166.855 699.756 165.775C698.182 164.695 696.216 164.155 693.856 164.155C691.496 164.142 689.529 164.675 687.956 165.755C686.396 166.835 685.222 168.342 684.436 170.275C683.649 172.195 683.242 174.402 683.216 176.895C683.189 179.389 683.569 181.595 684.356 183.515C685.156 185.422 686.349 186.922 687.936 188.015C689.522 189.095 691.496 189.635 693.856 189.635Z" fill="white"/>
<path d="M607.912 191.295V162.495H618.772C619.052 162.495 619.352 162.509 619.672 162.535C620.005 162.549 620.352 162.589 620.712 162.655C622.152 162.882 623.385 163.402 624.412 164.215C625.452 165.015 626.245 166.029 626.792 167.255C627.339 168.469 627.612 169.809 627.612 171.275C627.612 173.395 627.045 175.242 625.912 176.815C624.779 178.389 623.199 179.389 621.172 179.815L620.512 180.075H610.212V191.295H607.912ZM625.652 191.295L619.972 179.575L622.112 178.495L628.352 191.295H625.652ZM610.212 177.815H618.732C618.972 177.815 619.245 177.802 619.552 177.775C619.872 177.749 620.192 177.709 620.512 177.655C621.552 177.442 622.419 177.022 623.112 176.395C623.805 175.755 624.325 174.989 624.672 174.095C625.019 173.202 625.192 172.262 625.192 171.275C625.192 170.289 625.019 169.355 624.672 168.475C624.325 167.582 623.805 166.822 623.112 166.195C622.419 165.555 621.552 165.129 620.512 164.915C620.192 164.849 619.872 164.802 619.552 164.775C619.245 164.749 618.972 164.735 618.732 164.735H610.212V177.815Z" fill="white"/>
<path d="M534.601 191.295V162.495H545.461C545.741 162.495 546.041 162.509 546.361 162.535C546.694 162.549 547.041 162.589 547.401 162.655C548.841 162.882 550.074 163.402 551.101 164.215C552.141 165.015 552.934 166.029 553.481 167.255C554.028 168.469 554.301 169.809 554.301 171.275C554.301 172.755 554.028 174.109 553.481 175.335C552.934 176.549 552.141 177.562 551.101 178.375C550.074 179.175 548.841 179.689 547.401 179.915C547.041 179.969 546.694 180.009 546.361 180.035C546.041 180.062 545.741 180.075 545.461 180.075H536.901V191.295H534.601ZM536.901 177.815H545.421C545.661 177.815 545.934 177.802 546.241 177.775C546.561 177.749 546.881 177.709 547.201 177.655C548.241 177.442 549.108 177.022 549.801 176.395C550.494 175.755 551.014 174.989 551.361 174.095C551.708 173.202 551.881 172.262 551.881 171.275C551.881 170.289 551.708 169.355 551.361 168.475C551.014 167.582 550.494 166.822 549.801 166.195C549.108 165.555 548.241 165.129 547.201 164.915C546.881 164.849 546.561 164.802 546.241 164.775C545.934 164.749 545.661 164.735 545.421 164.735H536.901V177.815Z" fill="white"/>
<path d="M209.959 148.32C209.959 161.885 207.399 174.651 202.28 186.619C197.161 198.474 190.165 208.847 181.292 217.738C172.532 226.514 162.18 233.468 150.236 238.597C138.405 243.726 125.721 246.291 112.184 246.291C103.993 246.291 56.4227 246.159 46.7951 246.159V197.088C50.8371 197.088 108.514 197.22 112.184 197.22C107.861 197.22 115.853 197.22 112.184 197.22C118.584 196.521 125.209 195.966 131.125 193.459C137.154 190.837 142.387 187.303 146.823 182.858C151.26 178.412 154.729 173.226 157.232 167.299C159.848 161.372 161.157 155.045 161.157 148.32V87.5855L134.572 51.2397L183.419 1.68626V51.239L209.959 87.5855V148.32Z" fill="#C4C4C4"/>
<path d="M46.7951 246.159L0 197.22L0.927874 50.6071L46.7951 0.0726536V246.159Z" fill="white"/>
<path d="M272.146 50.7571L263.384 144.492C270.096 144.492 286.547 144.546 291.074 143.046C297.233 141.005 302.178 138.982 306.615 134.537C311.052 130.091 314.521 124.905 317.024 118.978C319.64 112.936 320.948 106.553 320.948 99.828C320.948 93.1029 319.64 86.7767 317.024 80.8494C314.521 74.8082 311.052 69.5648 306.615 65.1194C302.178 60.6739 297.002 57.1973 291.087 54.6897C285.171 52.068 278.858 50.7571 272.146 50.7571ZM263.384 144.492L272.146 50.7571H223.173L176.909 51.318L134.572 51.2397L183.419 1.68626H272.146C281.133 1.68626 289.779 2.88311 298.083 5.27681C306.387 7.55653 314.123 10.8621 321.29 15.1936C328.57 19.411 335.168 24.5404 341.084 30.5817C347.113 36.5089 352.232 43.1201 356.441 50.4152C360.764 57.7103 364.063 65.5183 366.338 73.8393C368.727 82.1602 369.921 90.8232 369.921 99.828C369.921 108.263 368.384 116.315 366.222 124.294C363.176 132.276 360.303 140.2 355.494 147.229C350.685 154.257 347.863 157.303 342.175 163.344C338.192 167.574 332.189 172.587 322.201 178.302C317.395 181.053 314.063 183.851 305.185 186.81L292.024 245.193L237.857 188.651L263.384 144.492Z" fill="white"/>
<path d="M46.7951 0.0726536L82.018 0L82.0133 50.6071L46.7951 50.6071V0.0726536Z" fill="url(#paint0_linear_1123_35)"/>
<path d="M237.857 188.651C237.857 188.651 285.152 188.072 292.024 188.072C298.896 188.072 305.185 186.81 305.185 186.81L369.921 246.291L292.024 245.193L237.857 188.651Z" fill="url(#paint1_linear_1123_35)"/>
<path d="M161.314 87.5557L209.959 87.5855L183.419 51.239L134.572 51.2397L161.314 87.5557Z" fill="url(#paint2_linear_1123_35)"/>
<path d="M46.7951 197.088L112.184 197.22V246.291L46.7951 246.159V197.088Z" fill="url(#paint3_linear_1123_35)"/>
<path d="M46.7951 0.0726536L82.018 0V50.6491H46.8463L46.7951 0.0726536Z" fill="url(#paint4_linear_1123_35)"/>
<path d="M134.572 51.2397L183.419 51.239L209.949 87.5958H161.153L134.572 51.2397Z" fill="url(#paint5_linear_1123_35)"/>
<path d="M209.949 87.5958L209.95 87.8292H161.154L161.153 87.5958H209.949Z" fill="#C4C4C4"/>
<defs>
<linearGradient id="paint0_linear_1123_35" x1="0" y1="123.146" x2="369.921" y2="123.146" gradientUnits="userSpaceOnUse">
<stop offset="0.120192" stop-color="#DADADA"/>
<stop offset="0.326923" stop-color="#999999"/>
</linearGradient>
<linearGradient id="paint1_linear_1123_35" x1="0" y1="123.146" x2="369.921" y2="123.146" gradientUnits="userSpaceOnUse">
<stop stop-color="#191919"/>
<stop offset="0.0001" stop-color="#C4C4C4"/>
</linearGradient>
<linearGradient id="paint2_linear_1123_35" x1="0" y1="123.146" x2="369.921" y2="123.146" gradientUnits="userSpaceOnUse">
<stop stop-color="#8A8A8A"/>
<stop offset="1" stop-color="#F9F9F9"/>
</linearGradient>
<linearGradient id="paint3_linear_1123_35" x1="0" y1="123.146" x2="369.921" y2="123.146" gradientUnits="userSpaceOnUse">
<stop stop-color="#C4C4C4"/>
<stop offset="1" stop-color="#AEAEAE"/>
</linearGradient>
<linearGradient id="paint4_linear_1123_35" x1="0" y1="123.146" x2="369.921" y2="123.146" gradientUnits="userSpaceOnUse">
<stop stop-color="#C4C4C4"/>
<stop offset="1" stop-color="#AEAEAE"/>
</linearGradient>
<linearGradient id="paint5_linear_1123_35" x1="0" y1="123.146" x2="369.921" y2="123.146" gradientUnits="userSpaceOnUse">
<stop stop-color="#C4C4C4"/>
<stop offset="1" stop-color="#202020" stop-opacity="0"/>
</linearGradient>
</defs>
</svg>
