<svg width="500" height="500" viewBox="0 0 500 500" fill="none" xmlns="http://www.w3.org/2000/svg">
<path d="M283.789 284.027C283.789 302.361 280.329 319.617 273.41 335.794C266.491 351.817 257.034 365.837 245.041 377.854C233.202 389.718 219.209 399.116 203.065 406.049C187.074 412.982 169.929 416.448 151.632 416.448C140.561 416.448 76.2631 416.27 63.2501 416.27V349.944C68.7133 349.944 146.672 350.122 151.632 350.122C145.789 350.122 156.592 350.122 151.632 350.122C160.283 349.178 169.237 348.427 177.233 345.038C185.382 341.494 192.455 336.718 198.452 330.71C204.448 324.701 209.138 317.691 212.521 309.679C216.057 301.668 217.826 293.117 217.826 284.027V201.936L181.892 152.809L247.917 85.831V152.808L283.789 201.936V284.027Z" fill="#454545"/>
<path d="M63.2501 416.27L0 350.122L1.25415 151.954L63.2501 83.65V416.27Z" fill="#222222"/>
<path d="M367.843 152.157L356 278.852C365.072 278.852 387.308 278.925 393.427 276.898C401.752 274.14 408.436 271.405 414.433 265.397C420.429 259.388 425.119 252.378 428.502 244.367C432.038 236.201 433.806 227.573 433.806 218.483C433.806 209.393 432.038 200.842 428.502 192.831C425.119 184.665 420.429 177.578 414.433 171.57C408.436 165.561 401.44 160.862 393.444 157.472C385.449 153.929 376.915 152.157 367.843 152.157ZM356 278.852L367.843 152.157H301.65L239.117 152.915L181.892 152.809L247.917 85.831H367.843C379.99 85.831 391.676 87.4487 402.9 90.6841C414.125 93.7655 424.581 98.2334 434.268 104.088C444.108 109.788 453.026 116.722 461.022 124.887C469.171 132.899 476.09 141.835 481.779 151.695C487.622 161.555 492.081 172.109 495.156 183.356C498.385 194.603 500 206.312 500 218.483C500 229.884 497.921 240.767 495 251.552C490.882 262.342 487 273.052 480.5 282.552C474 292.052 470.185 296.168 462.497 304.334C457.114 310.052 449 316.827 435.5 324.552C429.003 328.27 424.5 332.052 412.5 336.052L394.711 414.965L321.497 338.539L356 278.852Z" fill="#222222"/>
<path d="M63.2501 83.65L110.859 83.5518L110.852 151.954L63.2501 151.954V83.65Z" fill="url(#paint0_linear_1498_6)"/>
<path d="M321.497 338.539C321.497 338.539 385.422 337.757 394.711 337.757C404 337.757 412.5 336.052 412.5 336.052L500 416.448L394.711 414.965L321.497 338.539Z" fill="url(#paint1_linear_1498_6)"/>
<path d="M218.038 201.895L283.789 201.936L247.917 152.808L181.892 152.809L218.038 201.895Z" fill="url(#paint2_linear_1498_6)"/>
<path d="M63.2501 349.944L151.632 350.122V416.448L63.2501 416.27V349.944Z" fill="#454545"/>
<path d="M63.2501 83.65L110.859 83.5518V152.011H63.3193L63.2501 83.65Z" fill="#454545"/>
<path d="M181.892 152.809L247.917 152.808L283.775 201.95H217.821L181.892 152.809Z" fill="#454545"/>
<path d="M283.775 201.95L283.777 202.265H217.822L217.821 201.95H283.775Z" fill="#CCCCCC"/>
<defs>
<linearGradient id="paint0_linear_1498_6" x1="250" y1="83.5518" x2="250" y2="416.448" gradientUnits="userSpaceOnUse">
<stop offset="0.120192" stop-color="#DADADA"/>
<stop offset="0.326923" stop-color="#999999"/>
</linearGradient>
<linearGradient id="paint1_linear_1498_6" x1="403.092" y1="285.234" x2="441.477" y2="415.456" gradientUnits="userSpaceOnUse">
<stop stop-color="#191919"/>
<stop offset="0.0001" stop-color="#454545"/>
</linearGradient>
<linearGradient id="paint2_linear_1498_6" x1="186.899" y1="448.055" x2="159.012" y2="187.636" gradientUnits="userSpaceOnUse">
<stop stop-color="#8A8A8A"/>
<stop offset="1" stop-color="#F9F9F9"/>
</linearGradient>
</defs>
</svg>
